name rise30.3154peak39.0474fall46.5389.mot
datacolumns 19
datarows 29
range 16.68660900000000 16.73327100000000
endheader
time	ground_force1_vx	ground_force1_vy	ground_force1_vz	ground_force1_px	ground_force1_py	ground_force1_pz	ground_force2_vx	ground_force2_vy	ground_force2_vz	ground_force2_px	ground_force2_py	ground_force2_pz	ground_torque1_x	ground_torque1_y	ground_torque1_z	ground_torque2_x	ground_torque2_y	ground_torque2_z	
16.68660900000000	-61.89527100000000	818.72103800000002	58.30508600000000	0.14739800000000	0.00000000000000	0.14483300000000	-3.35146700000000	16.09003400000000	5.26632100000000	0.00000000000000	0.00000000000000	0.00000000000000	0.00000000000000	32.42005700000000	0.00000000000000	0.00000000000000	2.38577900000000	0.00000000000000	
16.68827100000000	-62.13341700000000	817.17179199999998	58.34483600000000	0.14660400000000	0.00000000000000	0.14484900000000	-4.23222700000000	21.48175500000000	6.77497400000000	0.00000000000000	0.00000000000000	0.00000000000000	0.00000000000000	32.37021700000000	0.00000000000000	0.00000000000000	3.06999700000000	0.00000000000000	
16.68993800000000	-62.37957000000000	815.51669400000003	58.37894900000000	0.14582700000000	0.00000000000000	0.14486300000000	-5.12507200000000	27.35825800000000	8.34728500000000	0.34595800000000	0.00000000000000	-0.02601400000000	0.00000000000000	32.32205000000000	0.00000000000000	0.00000000000000	6.53817700000000	0.00000000000000	
16.69160900000000	-62.63423200000000	813.75415599999997	58.40698200000000	0.14506800000000	0.00000000000000	0.14487600000000	-5.99649100000000	33.59915000000000	9.93436200000000	0.35196500000000	0.00000000000000	-0.02686100000000	0.00000000000000	32.27571200000000	0.00000000000000	0.00000000000000	7.84039000000000	0.00000000000000	
16.69327000000000	-62.89787500000000	811.88260200000002	58.42845800000000	0.14432800000000	0.00000000000000	0.14488600000000	-6.81370300000000	40.07685100000000	11.48720600000000	0.35769900000000	0.00000000000000	-0.02761500000000	0.00000000000000	32.23134100000000	0.00000000000000	0.00000000000000	9.13249600000000	0.00000000000000	
16.69493900000000	-63.17093600000000	809.90046900000004	58.44287500000000	0.14360900000000	0.00000000000000	0.14489400000000	-7.54703600000000	46.66704100000000	12.96034600000000	0.36319000000000	0.00000000000000	-0.02829300000000	0.00000000000000	32.18905400000000	0.00000000000000	0.00000000000000	10.37723200000000	0.00000000000000	
16.69660400000000	-63.45382100000000	807.80620799999997	58.44969800000000	0.14291100000000	0.00000000000000	0.14490000000000	-8.17186600000000	53.25794600000000	14.31489800000000	0.36846300000000	0.00000000000000	-0.02890600000000	0.00000000000000	32.14895400000000	0.00000000000000	0.00000000000000	11.54181900000000	0.00000000000000	
16.69827700000000	-63.74689600000000	805.59828800000003	58.44836600000000	0.14223500000000	0.00000000000000	0.14490300000000	-8.66993100000000	59.75749500000000	15.52073500000000	0.37353600000000	0.00000000000000	-0.02946600000000	0.00000000000000	32.11111800000000	0.00000000000000	0.00000000000000	12.59991000000000	0.00000000000000	
16.69994200000000	-64.05048600000001	803.27519099999995	58.43829000000000	0.14158100000000	0.00000000000000	0.14490400000000	-9.02994600000000	66.09783899999999	16.55764600000000	0.37842400000000	0.00000000000000	-0.02998000000000	0.00000000000000	32.07560500000000	0.00000000000000	0.00000000000000	13.53277200000000	0.00000000000000	
16.70160500000000	-64.36487200000001	800.83542000000000	58.41885400000000	0.14095200000000	0.00000000000000	0.14490200000000	-9.24756600000000	72.23717800000000	17.41550600000000	0.38313900000000	0.00000000000000	-0.03045600000000	0.00000000000000	32.04245200000000	0.00000000000000	0.00000000000000	14.32966800000000	0.00000000000000	
16.70327000000000	-64.69028600000000	798.27749900000003	58.38941900000000	0.14034600000000	0.00000000000000	0.14489700000000	-9.32477900000000	78.15915800000001	18.09359800000000	0.38769200000000	0.00000000000000	-0.03090000000000	0.00000000000000	32.01167200000000	0.00000000000000	0.00000000000000	14.98752300000000	0.00000000000000	
16.70494100000000	-65.02691100000000	795.59996999999998	58.34932200000000	0.13976400000000	0.00000000000000	0.14488900000000	-9.26889700000000	83.87026200000000	18.59928000000000	0.39209000000000	0.00000000000000	-0.03131600000000	0.00000000000000	31.98325400000000	0.00000000000000	0.00000000000000	15.51002500000000	0.00000000000000	
16.70660600000000	-65.37487400000001	792.80140100000006	58.29787900000000	0.13920800000000	0.00000000000000	0.14487700000000	-9.09127100000000	89.39579200000000	18.94621600000000	0.39634000000000	0.00000000000000	-0.03171000000000	0.00000000000000	31.95716500000000	0.00000000000000	0.00000000000000	15.90631600000000	0.00000000000000	
16.70827200000000	-65.73424799999999	789.88038400000005	58.23438800000000	0.13867600000000	0.00000000000000	0.14486200000000	-8.80590500000000	94.77499100000000	19.15239900000000	0.40044600000000	0.00000000000000	-0.03208300000000	0.00000000000000	31.93334300000000	0.00000000000000	0.00000000000000	16.18945300000000	0.00000000000000	
16.70993800000000	-66.10504400000001	786.83553800000004	58.15812800000000	0.13816900000000	0.00000000000000	0.14484300000000	-8.42809300000000	100.05588000000000	19.23817000000000	0.40441400000000	0.00000000000000	-0.03244000000000	0.00000000000000	31.91170500000000	0.00000000000000	0.00000000000000	16.37480900000000	0.00000000000000	
16.71160700000000	-66.48720800000000	783.66551000000004	58.06836600000000	0.13768700000000	0.00000000000000	0.14482100000000	-7.97318300000000	105.29026399999999	19.22438100000000	0.40824700000000	0.00000000000000	-0.03278300000000	0.00000000000000	31.89213900000000	0.00000000000000	0.00000000000000	16.47855600000000	0.00000000000000	
16.71327000000000	-66.88062300000000	780.36897999999997	57.96435500000000	0.13723000000000	0.00000000000000	0.14479500000000	-7.45555100000000	110.52928700000000	19.13083800000000	0.41194800000000	0.00000000000000	-0.03311400000000	0.00000000000000	31.87450700000000	0.00000000000000	0.00000000000000	16.51633600000000	0.00000000000000	
16.71494400000000	-67.28510100000000	776.94466100000000	57.84534000000000	0.13679700000000	0.00000000000000	0.14476500000000	-6.88782300000000	115.81978200000000	18.97509000000000	0.41551900000000	0.00000000000000	-0.03343600000000	0.00000000000000	31.85864500000000	0.00000000000000	0.00000000000000	16.50219100000000	0.00000000000000	
16.71660500000000	-67.70038300000000	773.39130200000000	57.71056100000000	0.13638800000000	0.00000000000000	0.14473000000000	-6.28036700000000	121.20157300000000	18.77160000000000	0.41896200000000	0.00000000000000	-0.03374900000000	0.00000000000000	31.84436200000000	0.00000000000000	0.00000000000000	16.44780700000000	0.00000000000000	
16.71827300000000	-68.12613500000000	769.70768899999996	57.55925400000000	0.13600200000000	0.00000000000000	0.14469200000000	-5.64104200000000	126.70574100000000	18.53129900000000	0.42228000000000	0.00000000000000	-0.03405600000000	0.00000000000000	31.83144000000000	0.00000000000000	0.00000000000000	16.36206000000000	0.00000000000000	
16.71994300000000	-68.56194700000000	765.89265200000000	57.39065600000000	0.13563900000000	0.00000000000000	0.14464900000000	-4.97518200000000	132.35384400000001	18.26147600000000	0.42547300000000	0.00000000000000	-0.03435700000000	0.00000000000000	31.81963400000000	0.00000000000000	0.00000000000000	16.25085900000000	0.00000000000000	
16.72160500000000	-69.00732900000000	761.94506200000001	57.20400800000000	0.13529800000000	0.00000000000000	0.14460100000000	-4.28576800000000	138.15795399999999	17.96596800000000	0.42854400000000	0.00000000000000	-0.03465400000000	0.00000000000000	31.80867200000000	0.00000000000000	0.00000000000000	16.11724600000000	0.00000000000000	
16.72326900000000	-69.46171099999999	757.86383699999999	56.99855600000000	0.13497800000000	0.00000000000000	0.14454900000000	-3.57374500000000	144.12136500000000	17.64557000000000	0.43149200000000	0.00000000000000	-0.03494700000000	0.00000000000000	31.79825700000000	0.00000000000000	0.00000000000000	15.96169000000000	0.00000000000000	
16.72494100000000	-69.92443900000001	753.64794600000005	56.77356200000000	0.13467800000000	0.00000000000000	0.14449300000000	-2.83843200000000	150.23980200000000	17.29859600000000	0.43431900000000	0.00000000000000	-0.03523800000000	0.00000000000000	31.78806400000000	0.00000000000000	0.00000000000000	15.78253500000000	0.00000000000000	
16.72660300000000	-70.39477500000000	749.29640900000004	56.52829800000000	0.13439800000000	0.00000000000000	0.14443200000000	-2.07797800000000	156.50293800000000	16.92152800000000	0.43702600000000	0.00000000000000	-0.03552600000000	0.00000000000000	31.77774500000000	0.00000000000000	0.00000000000000	15.57652600000000	0.00000000000000	
16.72827700000000	-70.87189700000000	744.80830000000003	56.26205600000000	0.13413500000000	0.00000000000000	0.14436600000000	-1.28981700000000	162.89605599999999	16.50967700000000	0.43961400000000	0.00000000000000	-0.03581300000000	0.00000000000000	31.76692600000000	0.00000000000000	0.00000000000000	15.33937100000000	0.00000000000000	
16.72993700000000	-71.35489400000000	740.18275300000005	55.97415300000000	0.13388900000000	0.00000000000000	0.14429500000000	-0.47110000000000	169.40170900000001	16.05781600000000	0.44208400000000	0.00000000000000	-0.03610000000000	0.00000000000000	31.75520900000000	0.00000000000000	0.00000000000000	15.06627900000000	0.00000000000000	
16.73160800000000	-71.84277200000000	735.41896299999996	55.66393000000000	0.13365800000000	0.00000000000000	0.14421900000000	0.38094200000000	176.00124000000000	15.56074300000000	0.44443500000000	0.00000000000000	-0.03638500000000	0.00000000000000	31.74217700000000	0.00000000000000	0.00000000000000	14.75245200000000	0.00000000000000	
16.73327100000000	-72.33444700000000	730.51619000000005	55.33075800000000	0.13344100000000	0.00000000000000	0.14413800000000	1.26869500000000	182.67610400000001	15.01373200000000	0.44666900000000	0.00000000000000	-0.03667100000000	0.00000000000000	31.72738600000000	0.00000000000000	0.00000000000000	14.39349000000000	0.00000000000000	
